<svg width="32" height="32" viewBox="0 0 32 32" fill="none" xmlns="http://www.w3.org/2000/svg">
  <rect width="32" height="32" rx="6" fill="#0EA5E9"/>
  <path d="M11 8H21C21.5523 8 22 8.44772 22 9V9C22 9.55228 21.5523 10 21 10H11C10.4477 10 10 9.55228 10 9V9C10 8.44772 10.4477 8 11 8Z" fill="white"/>
  <path d="M8 14H24C24.5523 14 25 14.4477 25 15V15C25 15.5523 24.5523 16 24 16H8C7.44772 16 7 15.5523 7 15V15C7 14.4477 7.44772 14 8 14Z" fill="white"/>
  <path d="M10 20H22C22.5523 20 23 20.4477 23 21V21C23 21.5523 22.5523 22 22 22H10C9.44772 22 9 21.5523 9 21V21C9 20.4477 9.44772 20 10 20Z" fill="white"/>
</svg> 